

Release info:

General
Format                                   : Matroska
Format version                           : Version 2
File size                                : 693 MiB
Duration                                 : 1h 29mn
Overall bit rate                         : 1 128 Kbps

Video
ID                                       : 1
Format                                   : MPEG-4 Visual
Codec ID/Hint                            : XviD
Duration                                 : 1h 29mn
Bit rate                                 : 1020 Kbps
Width                                    : 640 pixels
Height                                   : 280 pixels
Display aspect ratio                     : 2.35:1
Frame rate mode                          : Constant
Frame rate                               : 25.000 fps
Color space                              : YUV
Chroma subsampling                       : 4:2:0
Bit depth                                : 8 bits
Scan type                                : Progressive
Compression mode                         : Lossy
Bits/(Pixel*Frame)                       : 0.214
Stream size                              : 597 MiB (86%)
Writing library                          : XviD 64
Language                                 : English
Default                                  : Yes
Forced                                   : No

Audio
ID                                       : 2
Format                                   : MPEG Audio
Format version                           : Version 1
Format profile                           : Layer 3
Mode                                     : Joint stereo
Mode extension                           : MS Stereo
Muxing mode                              : Header stripping
Codec ID                                 : A_MPEG/L3
Codec ID/Hint                            : MP3
Duration                                 : 1h 29mn
Bit rate mode                            : Constant
Bit rate                                 : 128 Kbps
Channel(s)                               : 2 channels
Sampling rate                            : 48.0 KHz
Compression mode                         : Lossy
Stream size                              : 82.3 MiB (12%)
Language                                 : English
Default                                  : Yes
Forced                                   : No



Source:
Source: BluRay  720p x264-KIANDE
credit to original movie ripper KIANDE (Thanks)

IMDB Info:

Info: http://www.killingheat.com/
Release Date: 2012
Genre: Action | Comedy
Stars : Kenny Wang, Daniel Dahl and Kim Andersen

Synopsis:

When JD is fired from his dull desk job, two of his old college buddies invite him to Thailand for some old fashion R&R. Landing at Bangkok airport he meets his old pals John Walker and Gordon Goldman, who both have become successful international businessmen in Thailand. Straight to Pattaya, the city of sin, his friends promise him a vacation heΓÇÖll never forget. JD quickly learns the ropes of the bar-life and is having the time of his life. His friends get a crisis-call from their biggest client, Mr. Suntory, and abruptly leave JD alone in the worldΓÇÖs biggest red-light district. Not wanting to miss out on any fun, JD continues his heavy drinking until he passes out. Hungover and thirsty, JD wakes up in the boiling hot jungle with no idea where he is and no memory of how he got there. With no mobile reception, no money and only Viagra in his pockets, JD starts his journey back to civilization. Battling both heat and humidity, he finds himself more and more on the brink of total meltdown, all the while getting mixed up in a dispute he understands nothing of.



Screen Shot:
 
http://www.shotpix.com/images/25270804050390226348.png 
http://www.shotpix.com/images/32449963342012383337.png 
http://www.shotpix.com/images/06767488011167772536.png 
http://www.shotpix.com/images/44304400094629006507.png 
http://www.shotpix.com/images/64750936358256962478.png 
http://www.shotpix.com/images/36261464250707319876.png